<svg width="228" height="53" viewBox="0 0 228 53" fill="none" xmlns="http://www.w3.org/2000/svg">
<path d="M11.8403 52H0.620153L17.7164 2.47653H31.2096L48.2817 52H37.0615L24.6564 13.7934H24.2695L11.8403 52ZM11.1391 32.534H37.6419V40.7073H11.1391V32.534ZM62.6575 14.8574L69.4766 27.8428L76.4651 14.8574H87.0323L76.2716 33.4287L87.3225 52H76.8036L69.4766 39.1597L62.2706 52H51.6308L62.6575 33.4287L52.0177 14.8574H62.6575ZM108.602 52.7254C104.846 52.7254 101.598 51.9275 98.857 50.3315C96.1326 48.7194 94.0288 46.4786 92.5457 43.6091C91.0625 40.7234 90.321 37.3783 90.321 33.5738C90.321 29.737 91.0625 26.3839 92.5457 23.5143C94.0288 20.6287 96.1326 18.3879 98.857 16.7919C101.598 15.1798 104.846 14.3738 108.602 14.3738C112.358 14.3738 115.599 15.1798 118.323 16.7919C121.064 18.3879 123.175 20.6287 124.659 23.5143C126.142 26.3839 126.883 29.737 126.883 33.5738C126.883 37.3783 126.142 40.7234 124.659 43.6091C123.175 46.4786 121.064 48.7194 118.323 50.3315C115.599 51.9275 112.358 52.7254 108.602 52.7254ZM108.65 44.7456C110.359 44.7456 111.786 44.262 112.931 43.2947C114.075 42.3113 114.938 40.9733 115.518 39.2806C116.114 37.5879 116.413 35.6614 116.413 33.5012C116.413 31.341 116.114 29.4146 115.518 27.7219C114.938 26.0292 114.075 24.6912 112.931 23.7078C111.786 22.7244 110.359 22.2327 108.65 22.2327C106.926 22.2327 105.475 22.7244 104.298 23.7078C103.137 24.6912 102.259 26.0292 101.662 27.7219C101.082 29.4146 100.792 31.341 100.792 33.5012C100.792 35.6614 101.082 37.5879 101.662 39.2806C102.259 40.9733 103.137 42.3113 104.298 43.2947C105.475 44.262 106.926 44.7456 108.65 44.7456Z" fill="#373D97"/>
<path d="M136.628 52V2.47653H139.651V49.195H163.832V52H136.628ZM174.037 52V14.8574H176.963V52H174.037ZM175.512 8.28006C174.867 8.28006 174.303 8.05436 173.819 7.60298C173.352 7.1516 173.118 6.60349 173.118 5.95865C173.118 5.31381 173.352 4.7657 173.819 4.31431C174.287 3.86293 174.851 3.63723 175.512 3.63723C176.157 3.63723 176.713 3.86293 177.181 4.31431C177.664 4.7657 177.906 5.31381 177.906 5.95865C177.906 6.60349 177.672 7.1516 177.205 7.60298C176.737 8.05436 176.173 8.28006 175.512 8.28006ZM203.345 14.8574V17.4932H186.877V14.8574H203.345ZM192.294 52V9.07804C192.294 7.20802 192.721 5.61205 193.575 4.29013C194.43 2.96821 195.55 1.96066 196.937 1.26746C198.339 0.574259 199.847 0.22766 201.459 0.22766C202.313 0.22766 203.038 0.300203 203.635 0.445291C204.248 0.574259 204.78 0.727408 205.231 0.904739L204.36 3.51633C203.99 3.38736 203.587 3.27451 203.151 3.17779C202.732 3.08106 202.232 3.0327 201.652 3.0327C199.782 3.0327 198.242 3.60499 197.033 4.74958C195.824 5.89416 195.22 7.49013 195.22 9.53749L195.196 52H192.294ZM225.658 14.8574V17.4932H209.432V14.8574H225.658ZM214.922 5.95865H217.848V43.2222C217.848 44.7375 218.138 45.9788 218.718 46.9461C219.315 47.8972 220.088 48.6065 221.039 49.0741C222.007 49.5254 223.038 49.7511 224.135 49.7511C224.667 49.7511 225.126 49.7108 225.513 49.6302C225.916 49.5496 226.295 49.4448 226.65 49.3159L227.375 52C226.924 52.1612 226.424 52.2982 225.876 52.4111C225.328 52.5401 224.683 52.6045 223.941 52.6045C222.394 52.6045 220.927 52.2579 219.54 51.5647C218.17 50.8715 217.058 49.864 216.203 48.5421C215.349 47.2201 214.922 45.6242 214.922 43.7541V5.95865Z" fill="black"/>
</svg>
