<svg width="51" height="52" viewBox="0 0 51 52" fill="none" xmlns="http://www.w3.org/2000/svg">
<rect x="11.3538" y="32.2352" width="13.5002" height="6" rx="3" transform="rotate(-55.1359 11.3538 32.2352)" fill="#E9E9E9"/>
<rect x="28" y="22.4913" width="27.4114" height="6" rx="3" transform="rotate(-55.1359 28 22.4913)" fill="white"/>
<rect y="48.0769" width="15.7906" height="6" rx="3" transform="rotate(-55.1359 0 48.0769)" fill="white"/>
<path d="M15.3154 19.3003C15.195 22.3475 15.8642 25.3748 17.2578 28.0874C18.6514 30.7999 20.7222 33.1071 23.2695 34.7837L23.2207 34.856C26.0503 36.2358 28 39.1405 28 42.5005C27.9997 47.1947 24.1943 51.0005 19.5 51.0005C17.3344 51.0005 15.3594 50.1884 13.8584 48.855C6.1897 44.5855 1.00018 36.4003 1 27.0005C1 24.1242 1.48696 21.3614 2.38086 18.7896L15.3154 19.3003Z" fill="#E9E9E9"/>
<path d="M26 2C39.8071 2 51 13.1929 51 27C51 36.615 45.5711 44.9601 37.6123 49.1426C42.1059 45.7591 45 40.4589 45 34.5C45 24.2827 36.4934 16 26 16C15.5066 16 7 24.2827 7 34.5C7 40.4587 9.89347 45.759 14.3867 49.1426C6.42839 44.96 1 36.6147 1 27C1 13.1929 12.1929 2 26 2Z" fill="white"/>
</svg>
